<?xml version="1.0" encoding="UTF-8"?>
<svg version="1.1" xmlns="http://www.w3.org/2000/svg" width="500" height="476">
<path d="M0 0 C1.2065625 0.2784375 1.2065625 0.2784375 2.4375 0.5625 C3.283125 0.706875 4.12875 0.85125 5 1 C5.33 0.67 5.66 0.34 6 0 C7.81055025 -0.09376053 9.62477201 -0.1174411 11.43774414 -0.11352539 C12.59887222 -0.11344986 13.76000031 -0.11337433 14.95631409 -0.11329651 C16.85159096 -0.10555458 16.85159096 -0.10555458 18.78515625 -0.09765625 C20.71408974 -0.09553383 20.71408974 -0.09553383 22.68199158 -0.09336853 C26.10643443 -0.08954418 29.53083509 -0.07971462 32.95526123 -0.06866455 C36.44738189 -0.05844864 39.93950934 -0.05387053 43.43164062 -0.04882812 C50.28777778 -0.03809227 57.14388687 -0.02101684 64 0 C64 0.99 64 1.98 64 3 C69.28 3 74.56 3 80 3 C80 3.99 80 4.98 80 6 C80.84304688 5.96519531 81.68609375 5.93039063 82.5546875 5.89453125 C83.65039062 5.86746094 84.74609375 5.84039062 85.875 5.8125 C87.51082031 5.76029297 87.51082031 5.76029297 89.1796875 5.70703125 C90.11039062 5.80371094 91.04109375 5.90039062 92 6 C92.66 6.99 93.32 7.98 94 9 C96.03537658 9 98.07183769 8.99443285 100.10546875 8.91015625 C102 9 102 9 103.75 10.4375 C104.1625 10.953125 104.575 11.46875 105 12 C107.10332891 12.71447643 107.10332891 12.71447643 109 13 C109 13.99 109 14.98 109 16 C110.11375 15.95875 111.2275 15.9175 112.375 15.875 C116 16 116 16 118 18 C119.68698982 18.75776264 121.39890633 19.46111782 123.125 20.125 C124.03507812 20.47820313 124.94515625 20.83140625 125.8828125 21.1953125 C126.58148438 21.46085937 127.28015625 21.72640625 128 22 C128 22.99 128 23.98 128 25 C130.31 25.33 132.62 25.66 135 26 C135 26.99 135 27.98 135 29 C136.65 28.67 138.3 28.34 140 28 C140.33 29.32 140.66 30.64 141 32 C141.99 32 142.98 32 144 32 C144 32.99 144 33.98 144 35 C146.31 35 148.62 35 151 35 C151 35.66 151 36.32 151 37 C151.99 37.33 152.98 37.66 154 38 C154 38.99 154 39.98 154 41 C154.99 41 155.98 41 157 41 C158.33333333 43 159.66666667 45 161 47 C163.56282742 47.72965366 163.56282742 47.72965366 166 48 C166 48.66 166 49.32 166 50 C166.61875 50.2475 167.2375 50.495 167.875 50.75 C170.40358627 52.23740369 170.71839004 53.43678009 172 56 C174.0335948 57.26804566 174.0335948 57.26804566 176 58 C176 58.99 176 59.98 176 61 C176.598125 61.0825 177.19625 61.165 177.8125 61.25 C180.67412475 62.23112848 181.51320815 63.39811427 183 66 C183 67.32 183 68.64 183 70 C183.99 70.33 184.98 70.66 186 71 C186 71.66 186 72.32 186 73 C186.99 73 187.98 73 189 73 C189 73.99 189 74.98 189 76 C189.99 76.33 190.98 76.66 192 77 C192.103125 77.78375 192.20625 78.5675 192.3125 79.375 C192.77595022 82.33045181 192.77595022 82.33045181 196 84 C196 84.66 196 85.32 196 86 C196.99 86 197.98 86 199 86 C199 87.98 199 89.96 199 92 C199.99 92.33 200.98 92.66 202 93 C202 93.99 202 94.98 202 96 C202.99 96 203.98 96 205 96 C205 97.98 205 99.96 205 102 C205.99 102 206.98 102 208 102 C208.103125 102.928125 208.20625 103.85625 208.3125 104.8125 C209.04120877 108.19105883 209.57983054 108.78151133 212 111 C212.35169068 112.32860925 212.68770276 113.66158328 213 115 C213.66 115.33 214.32 115.66 215 116 C215.7166207 118.31847874 216.38242027 120.65319703 217 123 C217.33 123.66 217.66 124.32 218 125 C218.039992 126.99960012 218.04346799 129.00047242 218 131 C218.99 131 219.98 131 221 131 C221 134.3 221 137.6 221 141 C221.99 141 222.98 141 224 141 C224.03738281 141.78503906 224.07476562 142.57007813 224.11328125 143.37890625 C224.17902344 144.42949219 224.24476563 145.48007813 224.3125 146.5625 C224.37050781 147.59503906 224.42851562 148.62757813 224.48828125 149.69140625 C224.86386835 153.10229424 224.86386835 153.10229424 226.53125 156.375 C228.26399396 160.65155956 228.34945523 163.89860098 228.1875 168.4375 C228.17396484 169.16904297 228.16042969 169.90058594 228.14648438 170.65429688 C228.11153874 172.43652422 228.05774805 174.21836573 228 176 C228.66 176 229.32 176 230 176 C231.69196504 179.38393008 231.11986549 183.22477791 231.09765625 186.9453125 C231.09553383 188.27283035 231.09553383 188.27283035 231.09336853 189.62716675 C231.0877614 192.45981191 231.07520771 195.29237864 231.0625 198.125 C231.05748592 200.04296761 231.05292285 201.96093646 231.04882812 203.87890625 C231.03778966 208.58596782 231.02052025 213.2929706 231 218 C230.01 218 229.02 218 228 218 C228.01740234 219.25103516 228.01740234 219.25103516 228.03515625 220.52734375 C228.08799793 227.11745662 227.88555068 233.46906374 227 240 C226.01 240 225.02 240 224 240 C224 243.63 224 247.26 224 251 C223.01 251.33 222.02 251.66 221 252 C221 255.3 221 258.6 221 262 C220.34 262 219.68 262 219 262 C218.9175 263.27875 218.835 264.5575 218.75 265.875 C218.48828125 268.0859375 218.48828125 268.0859375 218 270 C215.9375 271.5 215.9375 271.5 214 272 C214.33 272.99 214.66 273.98 215 275 C214.5625 277.1875 214.5625 277.1875 214 279 C213.01 279 212.02 279 211 279 C211.33 279.99 211.66 280.98 212 282 C211.34 282.99 210.68 283.98 210 285 C209.31731862 286.32520503 208.6492959 287.65812182 208 289 C207.67 289.66 207.34 290.32 207 291 C206.34 291 205.68 291 205 291 C205 293.31 205 295.62 205 298 C204.34 298 203.68 298 203 298 C202.67 298.99 202.34 299.98 202 301 C201.01 301 200.02 301 199 301 C199 302.65 199 304.3 199 306 C198.01 306.33 197.02 306.66 196 307 C195.26676204 309.01508358 195.26676204 309.01508358 195 311 C194.01 311 193.02 311 192 311 C192 312.98 192 314.96 192 317 C191.01 317 190.02 317 189 317 C189 317.99 189 318.98 189 320 C188.01 320 187.02 320 186 320 C186 320.99 186 321.98 186 323 C185.01 323 184.02 323 183 323 C182.87625 323.61875 182.7525 324.2375 182.625 324.875 C182 327 182 327 180 329 C180 330.32 180 331.64 180 333 C178.68 333 177.36 333 176 333 C176 333.99 176 334.98 176 336 C175.01 336 174.02 336 173 336 C173 336.99 173 337.98 173 339 C172.01 339 171.02 339 170 339 C170 340.32 170 341.64 170 343 C168.02 343.33 166.04 343.66 164 344 C164.33 344.66 164.66 345.32 165 346 C164.360625 346.12375 163.72125 346.2475 163.0625 346.375 C162.0415625 346.684375 162.0415625 346.684375 161 347 C160.67 347.66 160.34 348.32 160 349 C159.01 349 158.02 349 157 349 C157 349.99 157 350.98 157 352 C156.01 352 155.02 352 154 352 C153.87625 352.598125 153.7525 353.19625 153.625 353.8125 C153 356 153 356 151 359 C147.375 359.1875 147.375 359.1875 144 359 C144 359.99 144 360.98 144 362 C143.01 362 142.02 362 141 362 C141 362.99 141 363.98 141 365 C139.02 365 137.04 365 135 365 C135 365.99 135 366.98 135 368 C133.02 368 131.04 368 129 368 C128.34 369.32 127.68 370.64 127 372 C125.35 372 123.7 372 122 372 C122 372.99 122 373.98 122 375 C120.02 375 118.04 375 116 375 C115.67 375.99 115.34 376.98 115 378 C113.02 378 111.04 378 109 378 C109 378.99 109 379.98 109 381 C107.02 381 105.04 381 103 381 C103 381.99 103 382.98 103 384 C99.7 384 96.4 384 93 384 C92.67 385.32 92.34 386.64 92 388 C88.37 388 84.74 388 81 388 C80.67 388.66 80.34 389.32 80 390 C76.93850533 390.56231535 73.89059134 390.91488154 70.79296875 391.2109375 C68.85470375 391.41349492 66.92577341 391.70117309 65 392 C64.67 392.66 64.34 393.32 64 394 C43.21 394 22.42 394 1 394 C0.67 393.34 0.34 392.68 0 392 C-5.04942445 391.12940958 -9.8864195 390.89346707 -15 391 C-15.33 389.68 -15.66 388.36 -16 387 C-16.9075 387.185625 -17.815 387.37125 -18.75 387.5625 C-21.68314324 387.95734621 -23.2644657 387.94691572 -26 387 C-26 386.01 -26 385.02 -26 384 C-28.97 384 -31.94 384 -35 384 C-35 383.01 -35 382.02 -35 381 C-38.3 381 -41.6 381 -45 381 C-45 380.01 -45 379.02 -45 378 C-46.98 378 -48.96 378 -51 378 C-51 377.01 -51 376.02 -51 375 C-53.31 375 -55.62 375 -58 375 C-58 374.01 -58 373.02 -58 372 C-59.98 371.67 -61.96 371.34 -64 371 C-64 370.01 -64 369.02 -64 368 C-65.98 368 -67.96 368 -70 368 C-70 367.01 -70 366.02 -70 365 C-71.32 365 -72.64 365 -74 365 C-74 364.01 -74 363.02 -74 362 C-75.98 362 -77.96 362 -80 362 C-80 361.01 -80 360.02 -80 359 C-80.99 359 -81.98 359 -83 359 C-83 357.68 -83 356.36 -83 355 C-84.98 355.33 -86.96 355.66 -89 356 C-89.33 354.68 -89.66 353.36 -90 352 C-90.99 352 -91.98 352 -93 352 C-93 351.01 -93 350.02 -93 349 C-93.99 349 -94.98 349 -96 349 C-96 348.01 -96 347.02 -96 346 C-96.99 346 -97.98 346 -99 346 C-99.495 344.515 -99.495 344.515 -100 343 C-100.66 343 -101.32 343 -102 343 C-102.66 342.01 -103.32 341.02 -104 340 C-104.66 339.67 -105.32 339.34 -106 339 C-106 338.01 -106 337.02 -106 336 C-106.99 336 -107.98 336 -109 336 C-109 335.01 -109 334.02 -109 333 C-109.99 333 -110.98 333 -112 333 C-112 332.01 -112 331.02 -112 330 C-112.99 330 -113.98 330 -115 330 C-115 329.01 -115 328.02 -115 327 C-115.99 327 -116.98 327 -118 327 C-118.495 325.515 -118.495 325.515 -119 324 C-119.99 323.34 -120.98 322.68 -122 322 C-122 321.34 -122 320.68 -122 320 C-122.99 320 -123.98 320 -125 320 C-125 318.02 -125 316.04 -125 314 C-125.99 314 -126.98 314 -128 314 C-128 313.01 -128 312.02 -128 311 C-128.99 311 -129.98 311 -131 311 C-131.66 310.01 -132.32 309.02 -133 308 C-133.33 308 -133.66 308 -134 308 C-134 305.69 -134 303.38 -134 301 C-135.32 300.67 -136.64 300.34 -138 300 C-138 298.68 -138 297.36 -138 296 C-138.99 295.67 -139.98 295.34 -141 295 C-141 294.01 -141 293.02 -141 292 C-141.99 291.67 -142.98 291.34 -144 291 C-144 289.02 -144 287.04 -144 285 C-144.99 285 -145.98 285 -147 285 C-147 282.03 -147 279.06 -147 276 C-147.99 276 -148.98 276 -150 276 C-150 273.69 -150 271.38 -150 269 C-150.99 269 -151.98 269 -153 269 C-153.33 266.03 -153.66 263.06 -154 260 C-154.99 259.67 -155.98 259.34 -157 259 C-157 256.03 -157 253.06 -157 250 C-157.99 250 -158.98 250 -160 250 C-160.04898438 249.07316406 -160.09796875 248.14632812 -160.1484375 247.19140625 C-160.22320312 245.99386719 -160.29796875 244.79632813 -160.375 243.5625 C-160.44460937 242.36753906 -160.51421875 241.17257812 -160.5859375 239.94140625 C-160.72257812 238.97074219 -160.85921875 238.00007812 -161 237 C-161.66 236.67 -162.32 236.34 -163 236 C-163.495 225.605 -163.495 225.605 -164 215 C-164.66 215 -165.32 215 -166 215 C-166 203.45 -166 191.9 -166 180 C-165.34 179.67 -164.68 179.34 -164 179 C-163.67 171.74 -163.34 164.48 -163 157 C-162.01 156.67 -161.02 156.34 -160 156 C-160 152.04 -160 148.08 -160 144 C-159.01 144 -158.02 144 -157 144 C-157.03480469 143.08476562 -157.06960937 142.16953125 -157.10546875 141.2265625 C-157.13253906 140.03804687 -157.15960938 138.84953125 -157.1875 137.625 C-157.23970703 135.84996094 -157.23970703 135.84996094 -157.29296875 134.0390625 C-157.19628906 133.03617188 -157.09960938 132.03328125 -157 131 C-155.515 130.01 -155.515 130.01 -154 129 C-154 127.68 -154 126.36 -154 125 C-152.02 124.505 -152.02 124.505 -150 124 C-150 121.03 -150 118.06 -150 115 C-149.01 115 -148.02 115 -147 115 C-147 113.02 -147 111.04 -147 109 C-146.01 109 -145.02 109 -144 109 C-144 106.69 -144 104.38 -144 102 C-142.515 101.505 -142.515 101.505 -141 101 C-141 99.35 -141 97.7 -141 96 C-139.515 95.505 -139.515 95.505 -138 95 C-137.505 93.515 -137.505 93.515 -137 92 C-136.01 92 -135.02 92 -134 92 C-134 90.02 -134 88.04 -134 86 C-133.01 86 -132.02 86 -131 86 C-131 85.01 -131 84.02 -131 83 C-130.01 83 -129.02 83 -128 83 C-128 81.02 -128 79.04 -128 77 C-127.34 76.67 -126.68 76.34 -126 76 C-125.505 74.515 -125.505 74.515 -125 73 C-124.01 73 -123.02 73 -122 73 C-121.505 71.515 -121.505 71.515 -121 70 C-120.01 70 -119.02 70 -118 70 C-118 68.35 -118 66.7 -118 65 C-117.01 64.67 -116.02 64.34 -115 64 C-114.855625 63.360625 -114.71125 62.72125 -114.5625 62.0625 C-114 60 -114 60 -112.0625 58.8125 C-111.381875 58.544375 -110.70125 58.27625 -110 58 C-109.34 57.67 -108.68 57.34 -108 57 C-108 56.34 -108 55.68 -108 55 C-107.34 55 -106.68 55 -106 55 C-105.34 53.68 -104.68 52.36 -104 51 C-102.35 51 -100.7 51 -99 51 C-99 50.01 -99 49.02 -99 48 C-98.01 48 -97.02 48 -96 48 C-96 47.01 -96 46.02 -96 45 C-95.01 44.34 -94.02 43.68 -93 43 C-90.7763932 41.0745356 -90.7763932 41.0745356 -90 38 C-86.535 37.505 -86.535 37.505 -83 37 C-83 36.34 -83 35.68 -83 35 C-82.01 35 -81.02 35 -80 35 C-80 34.01 -80 33.02 -80 32 C-79.44570312 31.74605469 -78.89140625 31.49210937 -78.3203125 31.23046875 C-77.23363281 30.71419922 -77.23363281 30.71419922 -76.125 30.1875 C-75.40570313 29.85105469 -74.68640625 29.51460937 -73.9453125 29.16796875 C-71.69457194 28.00532903 -71.69457194 28.00532903 -70 25 C-66.875 24.8125 -66.875 24.8125 -64 25 C-64 24.01 -64 23.02 -64 22 C-62.02 22 -60.04 22 -58 22 C-57.505 20.515 -57.505 20.515 -57 19 C-55.02 19 -53.04 19 -51 19 C-51 18.01 -51 17.02 -51 16 C-49.02 16 -47.04 16 -45 16 C-44.34 14.68 -43.68 13.36 -43 12 C-40.36 12 -37.72 12 -35 12 C-35.33 11.01 -35.66 10.02 -36 9 C-32.7 9 -29.4 9 -26 9 C-26.33 8.01 -26.66 7.02 -27 6 C-23.37 6 -19.74 6 -16 6 C-16 5.01 -16 4.02 -16 3 C-10.72 3 -5.44 3 0 3 C0 2.01 0 1.02 0 0 Z M-104 52 C-103.67 52.66 -103.34 53.32 -103 54 C-102.67 53.34 -102.34 52.68 -102 52 C-102.66 52 -103.32 52 -104 52 Z M-117 65 C-116.67 65.66 -116.34 66.32 -116 67 C-115.67 66.34 -115.34 65.68 -115 65 C-115.66 65 -116.32 65 -117 65 Z " fill="#3A01FC" transform="translate(208,40)"/>
<path d="M0 0 C1.2065625 0.2784375 1.2065625 0.2784375 2.4375 0.5625 C3.283125 0.706875 4.12875 0.85125 5 1 C5.33 0.67 5.66 0.34 6 0 C7.81055025 -0.09376053 9.62477201 -0.1174411 11.43774414 -0.11352539 C12.59887222 -0.11344986 13.76000031 -0.11337433 14.95631409 -0.11329651 C16.85159096 -0.10555458 16.85159096 -0.10555458 18.78515625 -0.09765625 C20.71408974 -0.09553383 20.71408974 -0.09553383 22.68199158 -0.09336853 C26.10643443 -0.08954418 29.53083509 -0.07971462 32.95526123 -0.06866455 C36.44738189 -0.05844864 39.93950934 -0.05387053 43.43164062 -0.04882812 C50.28777778 -0.03809227 57.14388687 -0.02101684 64 0 C64 0.99 64 1.98 64 3 C69.28 3 74.56 3 80 3 C80 3.99 80 4.98 80 6 C80.84304688 5.96519531 81.68609375 5.93039063 82.5546875 5.89453125 C83.65039062 5.86746094 84.74609375 5.84039062 85.875 5.8125 C87.51082031 5.76029297 87.51082031 5.76029297 89.1796875 5.70703125 C90.11039063 5.80371094 91.04109375 5.90039062 92 6 C92.99 7.485 92.99 7.485 94 9 C96.03537658 9 98.07183769 8.99443285 100.10546875 8.91015625 C102 9 102 9 103.75 10.4375 C104.36875 11.2109375 104.36875 11.2109375 105 12 C107.10332891 12.71447643 107.10332891 12.71447643 109 13 C109 13.99 109 14.98 109 16 C110.11375 15.95875 111.2275 15.9175 112.375 15.875 C116 16 116 16 118 18 C119.68698982 18.75776264 121.39890633 19.46111782 123.125 20.125 C124.03507813 20.47820313 124.94515625 20.83140625 125.8828125 21.1953125 C126.58148438 21.46085937 127.28015625 21.72640625 128 22 C128 22.99 128 23.98 128 25 C130.31 25.33 132.62 25.66 135 26 C135 26.99 135 27.98 135 29 C136.65 28.67 138.3 28.34 140 28 C140.33 29.32 140.66 30.64 141 32 C141.99 32 142.98 32 144 32 C144 32.99 144 33.98 144 35 C146.31 35 148.62 35 151 35 C151 35.66 151 36.32 151 37 C151.99 37.33 152.98 37.66 154 38 C154 38.99 154 39.98 154 41 C154.99 41 155.98 41 157 41 C158.33333333 43 159.66666667 45 161 47 C163.56282742 47.72965366 163.56282742 47.72965366 166 48 C166 48.66 166 49.32 166 50 C166.61875 50.2475 167.2375 50.495 167.875 50.75 C170.40358627 52.23740369 170.71839004 53.43678009 172 56 C174.0335948 57.26804566 174.0335948 57.26804566 176 58 C176 58.99 176 59.98 176 61 C176.598125 61.0825 177.19625 61.165 177.8125 61.25 C180.67412475 62.23112848 181.51320815 63.39811427 183 66 C183 67.32 183 68.64 183 70 C183.99 70.33 184.98 70.66 186 71 C186 71.66 186 72.32 186 73 C186.99 73 187.98 73 189 73 C189 73.99 189 74.98 189 76 C189.99 76.33 190.98 76.66 192 77 C192.103125 77.78375 192.20625 78.5675 192.3125 79.375 C192.77595022 82.33045181 192.77595022 82.33045181 196 84 C196 84.66 196 85.32 196 86 C196.99 86 197.98 86 199 86 C199 87.98 199 89.96 199 92 C199.99 92.33 200.98 92.66 202 93 C202 93.99 202 94.98 202 96 C202.99 96 203.98 96 205 96 C205 97.98 205 99.96 205 102 C205.99 102 206.98 102 208 102 C208.103125 102.928125 208.20625 103.85625 208.3125 104.8125 C209.04120877 108.19105883 209.57983054 108.78151133 212 111 C212.35169068 112.32860925 212.68770276 113.66158328 213 115 C213.66 115.33 214.32 115.66 215 116 C215.7166207 118.31847874 216.38242027 120.65319703 217 123 C217.33 123.66 217.66 124.32 218 125 C218.039992 126.99960012 218.04346799 129.00047242 218 131 C218.99 131 219.98 131 221 131 C221 134.3 221 137.6 221 141 C221.99 141 222.98 141 224 141 C224.03738281 141.78503906 224.07476562 142.57007813 224.11328125 143.37890625 C224.17902344 144.42949219 224.24476563 145.48007813 224.3125 146.5625 C224.37050781 147.59503906 224.42851562 148.62757813 224.48828125 149.69140625 C224.86386835 153.10229424 224.86386835 153.10229424 226.53125 156.375 C228.26399396 160.65155956 228.34945523 163.89860098 228.1875 168.4375 C228.17396484 169.16904297 228.16042969 169.90058594 228.14648438 170.65429688 C228.11153874 172.43652422 228.05774805 174.21836573 228 176 C228.66 176 229.32 176 230 176 C231.69196504 179.38393008 231.11986549 183.22477791 231.09765625 186.9453125 C231.09553383 188.27283035 231.09553383 188.27283035 231.09336853 189.62716675 C231.0877614 192.45981191 231.07520771 195.29237864 231.0625 198.125 C231.05748592 200.04296761 231.05292285 201.96093646 231.04882812 203.87890625 C231.03778966 208.58596782 231.02052025 213.2929706 231 218 C230.01 218 229.02 218 228 218 C228.01740234 219.25103516 228.01740234 219.25103516 228.03515625 220.52734375 C228.08799793 227.11745662 227.88555068 233.46906374 227 240 C226.01 240 225.02 240 224 240 C224 243.63 224 247.26 224 251 C223.01 251.33 222.02 251.66 221 252 C221 255.3 221 258.6 221 262 C220.34 262 219.68 262 219 262 C218.9175 263.27875 218.835 264.5575 218.75 265.875 C218.48828125 268.0859375 218.48828125 268.0859375 218 270 C215.9375 271.5 215.9375 271.5 214 272 C214.33 272.99 214.66 273.98 215 275 C214.5625 277.1875 214.5625 277.1875 214 279 C213.01 279 212.02 279 211 279 C211.33 279.99 211.66 280.98 212 282 C211.34 282.99 210.68 283.98 210 285 C209.31731862 286.32520503 208.6492959 287.65812182 208 289 C207.67 289.66 207.34 290.32 207 291 C206.34 291 205.68 291 205 291 C205 293.31 205 295.62 205 298 C204.34 298 203.68 298 203 298 C202.67 298.99 202.34 299.98 202 301 C201.01 301 200.02 301 199 301 C199 302.65 199 304.3 199 306 C198.01 306.33 197.02 306.66 196 307 C195.26676204 309.01508358 195.26676204 309.01508358 195 311 C194.01 311 193.02 311 192 311 C192 312.98 192 314.96 192 317 C191.01 317 190.02 317 189 317 C189 317.99 189 318.98 189 320 C188.01 320 187.02 320 186 320 C186 320.99 186 321.98 186 323 C185.01 323 184.02 323 183 323 C182.67 324.32 182.34 325.64 182 327 C181.34 326.67 180.68 326.34 180 326 C182.01343151 320.81457024 184.11281889 315.71314444 186.5 310.6875 C195.72646318 290.61139957 197.68860678 265.82425946 190.47265625 244.7734375 C186.37061428 233.92287488 179.56491601 223.37978823 171.19921875 215.25 C170 214 170 214 170 212 C169.40960938 211.73316406 168.81921875 211.46632812 168.2109375 211.19140625 C165.9614096 209.97920482 164.46483983 208.69825169 162.625 206.9375 C148.8105879 194.6296504 131.16886878 186.43121162 114 180 C112.16296509 179.30571899 112.16296509 179.30571899 110.28881836 178.59741211 C96.82364911 173.55756542 83.37862406 169.73734227 69.31900024 166.73028564 C55.68836083 163.80356353 42.13026894 160.77091047 28.8125 156.625 C27.81863281 156.31578613 26.82476562 156.00657227 25.80078125 155.68798828 C17.47392754 152.99667198 9.71034461 149.42654884 1.9375 145.4375 C-1.88958471 143.48372684 -5.6801852 141.65108378 -9.75 140.25 C-13 139 -13 139 -15 136 C-16.9466071 134.78581167 -16.9466071 134.78581167 -19.125 133.8125 C-20.21167969 133.29623047 -20.21167969 133.29623047 -21.3203125 132.76953125 C-21.87460938 132.51558594 -22.42890625 132.26164063 -23 132 C-23 131.34 -23 130.68 -23 130 C-23.57621094 129.90589844 -24.15242188 129.81179687 -24.74609375 129.71484375 C-27.50974924 128.8383291 -28.94333874 127.52650109 -31.0625 125.5625 C-33.33756394 123.47083853 -35.41507709 121.72328194 -38 120 C-39.0787541 118.91051203 -40.11932387 117.7822856 -41.125 116.625 C-41.64320313 116.03976563 -42.16140625 115.45453125 -42.6953125 114.8515625 C-44.07970944 112.88687942 -44.57596162 111.34772469 -45 109 C-45.99 109 -46.98 109 -48 109 C-48.33 108.01 -48.66 107.02 -49 106 C-49.66 105.67 -50.32 105.34 -51 105 C-51.74118205 102.68925595 -52.40206327 100.35188447 -53 98 C-53.309375 96.9171875 -53.309375 96.9171875 -53.625 95.8125 C-54 94 -54 94 -54 90 C-55.485 89.505 -55.485 89.505 -57 89 C-58 86 -58 86 -57 81 C-68.22 81 -79.44 81 -91 81 C-91.33 81.66 -91.66 82.32 -92 83 C-92.99 82.67 -93.98 82.34 -95 82 C-95 81.01 -95 80.02 -95 79 C-103.58 79.33 -112.16 79.66 -121 80 C-121 79.01 -121 78.02 -121 77 C-123.88437779 78.29299694 -125.87219421 79.65941363 -128 82 C-128 80.35 -128 78.7 -128 77 C-127.01 76.505 -127.01 76.505 -126 76 C-125.67 75.01 -125.34 74.02 -125 73 C-124.01 73 -123.02 73 -122 73 C-121.67 72.01 -121.34 71.02 -121 70 C-120.01 70 -119.02 70 -118 70 C-118 68.35 -118 66.7 -118 65 C-116.515 64.505 -116.515 64.505 -115 64 C-114.855625 63.360625 -114.71125 62.72125 -114.5625 62.0625 C-114 60 -114 60 -112.0625 58.8125 C-111.381875 58.544375 -110.70125 58.27625 -110 58 C-109.01 57.505 -109.01 57.505 -108 57 C-108 56.34 -108 55.68 -108 55 C-107.34 55 -106.68 55 -106 55 C-105.34 53.68 -104.68 52.36 -104 51 C-102.35 51 -100.7 51 -99 51 C-99 50.01 -99 49.02 -99 48 C-98.01 48 -97.02 48 -96 48 C-96 47.01 -96 46.02 -96 45 C-95.01 44.34 -94.02 43.68 -93 43 C-90.7763932 41.0745356 -90.7763932 41.0745356 -90 38 C-87.69 37.67 -85.38 37.34 -83 37 C-83 36.34 -83 35.68 -83 35 C-82.01 35 -81.02 35 -80 35 C-80 34.01 -80 33.02 -80 32 C-79.44570312 31.74605469 -78.89140625 31.49210937 -78.3203125 31.23046875 C-77.59585938 30.88628906 -76.87140625 30.54210937 -76.125 30.1875 C-75.40570313 29.85105469 -74.68640625 29.51460937 -73.9453125 29.16796875 C-71.69457194 28.00532903 -71.69457194 28.00532903 -70 25 C-66.875 24.8125 -66.875 24.8125 -64 25 C-64 24.01 -64 23.02 -64 22 C-62.02 22 -60.04 22 -58 22 C-57.505 20.515 -57.505 20.515 -57 19 C-55.02 19 -53.04 19 -51 19 C-51 18.01 -51 17.02 -51 16 C-49.02 16 -47.04 16 -45 16 C-44.34 14.68 -43.68 13.36 -43 12 C-40.36 12 -37.72 12 -35 12 C-35.495 10.515 -35.495 10.515 -36 9 C-32.7 9 -29.4 9 -26 9 C-26.495 7.515 -26.495 7.515 -27 6 C-23.37 6 -19.74 6 -16 6 C-16 5.01 -16 4.02 -16 3 C-10.72 3 -5.44 3 0 3 C0 2.01 0 1.02 0 0 Z M-104 52 C-103.67 52.66 -103.34 53.32 -103 54 C-102.67 53.34 -102.34 52.68 -102 52 C-102.66 52 -103.32 52 -104 52 Z M-117 65 C-116.67 65.66 -116.34 66.32 -116 67 C-115.67 66.34 -115.34 65.68 -115 65 C-115.66 65 -116.32 65 -117 65 Z " fill="#7700FC" transform="translate(208,40)"/>
<path d="M0 0 C2.64 0 5.28 0 8 0 C8 0.66 8 1.32 8 2 C11.1653986 3.5826993 14.64641509 3.65696549 18.125 4.0625 C18.87910156 4.15337891 19.63320312 4.24425781 20.41015625 4.33789062 C22.27304188 4.56190852 24.13647252 4.78138573 26 5 C23.3534665 7.6465335 20.43778736 8.59941997 17 10 C16.505 9.505 16.505 9.505 16 9 C14.00035018 8.91241997 11.9976389 8.89303424 9.99609375 8.90234375 C8.17368164 8.90717773 8.17368164 8.90717773 6.31445312 8.91210938 C5.03505859 8.92048828 3.75566406 8.92886719 2.4375 8.9375 C0.51260742 8.94426758 0.51260742 8.94426758 -1.45117188 8.95117188 C-4.63416022 8.96300455 -7.81705762 8.97948932 -11 9 C-11 9.66 -11 10.32 -11 11 C-13.97 11 -16.94 11 -20 11 C-20.33 13.64 -20.66 16.28 -21 19 C-17.70837401 19.16747651 -14.41669287 19.33384361 -11.125 19.5 C-9.71927734 19.57154297 -9.71927734 19.57154297 -8.28515625 19.64453125 C-6.94130859 19.71220703 -6.94130859 19.71220703 -5.5703125 19.78125 C-4.74289551 19.82314453 -3.91547852 19.86503906 -3.06298828 19.90820312 C-1.70965236 19.96842257 -0.35467505 20 1 20 C1.99 20.33 2.98 20.66 4 21 C0.12435233 24.61139896 0.12435233 24.61139896 -2 26 C-4.375 25.8125 -4.375 25.8125 -6 25 C-6 24.34 -6 23.68 -6 23 C-14.25 23 -22.5 23 -31 23 C-31.33 23.99 -31.66 24.98 -32 26 C-33.5 24.625 -33.5 24.625 -35 23 C-35 22.34 -35 21.68 -35 21 C-39.455 23.475 -39.455 23.475 -44 26 C-44 25.01 -44 24.02 -44 23 C-43.44570312 22.74605469 -42.89140625 22.49210937 -42.3203125 22.23046875 C-41.59585938 21.88628906 -40.87140625 21.54210937 -40.125 21.1875 C-39.04605469 20.68283203 -39.04605469 20.68283203 -37.9453125 20.16796875 C-35.69457194 19.00532903 -35.69457194 19.00532903 -34 16 C-30.875 15.8125 -30.875 15.8125 -28 16 C-28 15.01 -28 14.02 -28 13 C-26.02 13 -24.04 13 -22 13 C-21.67 12.01 -21.34 11.02 -21 10 C-19.02 10 -17.04 10 -15 10 C-15 9.01 -15 8.02 -15 7 C-13.02 7 -11.04 7 -9 7 C-8.34 5.68 -7.68 4.36 -7 3 C-4.36 3 -1.72 3 1 3 C0.505 1.515 0.505 1.515 0 0 Z " fill="#8420CB" transform="translate(172,49)"/>
<path d="M0 0 C1.60488281 0.00483398 1.60488281 0.00483398 3.2421875 0.00976562 C4.35335937 0.01814453 5.46453125 0.02652344 6.609375 0.03515625 C8.29933594 0.04192383 8.29933594 0.04192383 10.0234375 0.04882812 C12.80213717 0.06060228 15.58072909 0.07704785 18.359375 0.09765625 C17.25842138 3.40051711 16.6697731 3.88276526 13.921875 5.78515625 C12.99568359 6.44064453 12.99568359 6.44064453 12.05078125 7.109375 C10.359375 8.09765625 10.359375 8.09765625 8.359375 8.09765625 C8.359375 8.75765625 8.359375 9.41765625 8.359375 10.09765625 C7.699375 10.09765625 7.039375 10.09765625 6.359375 10.09765625 C6.359375 10.75765625 6.359375 11.41765625 6.359375 12.09765625 C4.379375 12.75765625 2.399375 13.41765625 0.359375 14.09765625 C0.359375 13.43765625 0.359375 12.77765625 0.359375 12.09765625 C-6.240625 12.09765625 -12.840625 12.09765625 -19.640625 12.09765625 C-21.24093844 8.89702938 -19.67236191 6.37493819 -18.640625 3.09765625 C-15.670625 3.09765625 -12.700625 3.09765625 -9.640625 3.09765625 C-9.640625 2.43765625 -9.640625 1.77765625 -9.640625 1.09765625 C-6.36436125 0.11545685 -3.41274381 -0.01815289 0 0 Z " fill="#8D00FC" transform="translate(170.640625,56.90234375)"/>
<path d="M0 0 C0.804375 0.185625 1.60875 0.37125 2.4375 0.5625 C3.283125 0.706875 4.12875 0.85125 5 1 C5.33 0.67 5.66 0.34 6 0 C7.41570123 -0.08651611 8.835595 -0.10704904 10.25390625 -0.09765625 C11.53491211 -0.09282227 11.53491211 -0.09282227 12.84179688 -0.08789062 C13.73962891 -0.07951172 14.63746094 -0.07113281 15.5625 -0.0625 C16.46419922 -0.05798828 17.36589844 -0.05347656 18.29492188 -0.04882812 C20.53001314 -0.03700225 22.76497437 -0.0205222 25 0 C25 0.33 25 0.66 25 1 C23.02 1.33 21.04 1.66 19 2 C19 2.99 19 3.98 19 5 C15.10281829 6.86665742 12.45915815 7.13965761 8.1875 6.625 C7.21167969 6.51414062 6.23585937 6.40328125 5.23046875 6.2890625 C4.49441406 6.19367187 3.75835937 6.09828125 3 6 C3 6.66 3 7.32 3 8 C1.25093469 8.64836042 -0.49929219 9.29358784 -2.25 9.9375 C-3.22453125 10.29714844 -4.1990625 10.65679687 -5.203125 11.02734375 C-7.46457161 11.81379655 -9.66796552 12.47251601 -12 13 C-12 12.34 -12 11.68 -12 11 C-13.98 11 -15.96 11 -18 11 C-17.67 10.01 -17.34 9.02 -17 8 C-19.97 8 -22.94 8 -26 8 C-26.33 7.34 -26.66 6.68 -27 6 C-23.37 6 -19.74 6 -16 6 C-16 5.01 -16 4.02 -16 3 C-10.72 3 -5.44 3 0 3 C0 2.01 0 1.02 0 0 Z " fill="#9E23D4" transform="translate(208,40)"/>
<path d="M0 0 C2.64 0 5.28 0 8 0 C8 0.66 8 1.32 8 2 C11.1653986 3.5826993 14.64641509 3.65696549 18.125 4.0625 C18.87910156 4.15337891 19.63320312 4.24425781 20.41015625 4.33789062 C22.27304188 4.56190852 24.13647252 4.78138573 26 5 C23.3534665 7.6465335 20.43778736 8.59941997 17 10 C16.505 9.505 16.505 9.505 16 9 C14.00035018 8.91241997 11.9976389 8.89303424 9.99609375 8.90234375 C8.17368164 8.90717773 8.17368164 8.90717773 6.31445312 8.91210938 C5.03505859 8.92048828 3.75566406 8.92886719 2.4375 8.9375 C0.51260742 8.94426758 0.51260742 8.94426758 -1.45117188 8.95117188 C-4.63416022 8.96300455 -7.81705762 8.97948932 -11 9 C-11 9.66 -11 10.32 -11 11 C-12.98 11 -14.96 11 -17 11 C-16.34 10.67 -15.68 10.34 -15 10 C-15 9.01 -15 8.02 -15 7 C-13.02 7 -11.04 7 -9 7 C-8.34 5.68 -7.68 4.36 -7 3 C-4.36 3 -1.72 3 1 3 C0.67 2.01 0.34 1.02 0 0 Z " fill="#990CE7" transform="translate(172,49)"/>
<path d="M0 0 C2.64 0 5.28 0 8 0 C4.98333526 2.01110983 2.50011273 2.91220166 -0.9375 4 C-5.02914896 5.25577759 -5.02914896 5.25577759 -8.8840332 7.06396484 C-11.40352814 8.17850777 -13.02822171 8.15203707 -15.765625 7.9765625 C-16.65507812 7.925 -17.54453125 7.8734375 -18.4609375 7.8203125 C-19.38132813 7.75585938 -20.30171875 7.69140625 -21.25 7.625 C-22.18585938 7.56828125 -23.12171875 7.5115625 -24.0859375 7.453125 C-26.39143448 7.31197212 -28.69578928 7.1605965 -31 7 C-31 5.68 -31 4.36 -31 3 C-23.375 0.875 -23.375 0.875 -20 2 C-20 2.66 -20 3.32 -20 4 C-18.35 4.33 -16.7 4.66 -15 5 C-15 5.66 -15 6.32 -15 7 C-14.33613281 6.72285156 -13.67226562 6.44570313 -12.98828125 6.16015625 C-11.66376953 5.61681641 -11.66376953 5.61681641 -10.3125 5.0625 C-9.00732422 4.52302734 -9.00732422 4.52302734 -7.67578125 3.97265625 C-5.11820735 3.0429688 -2.6778677 2.45837375 0 2 C0 1.34 0 0.68 0 0 Z " fill="#9900F4" transform="translate(211,46)"/>
<path d="M0 0 C1.14855469 -0.020625 2.29710937 -0.04125 3.48046875 -0.0625 C4.57488281 -0.06765625 5.66929687 -0.0728125 6.796875 -0.078125 C7.79557617 -0.0874707 8.79427734 -0.09681641 9.82324219 -0.10644531 C11.0244873 0.06999512 11.0244873 0.06999512 12.25 0.25 C12.91 1.24 13.57 2.23 14.25 3.25 C3.36 3.25 -7.53 3.25 -18.75 3.25 C-18.75 2.59 -18.75 1.93 -18.75 1.25 C-12.47114169 0.08482696 -6.36913771 0.02898356 0 0 Z " fill="#A200F1" transform="translate(255.75,39.75)"/>
<path d="M0 0 C2.475 0.99 2.475 0.99 5 2 C5 3.65 5 5.3 5 7 C4.01 7 3.02 7 2 7 C2 7.99 2 8.98 2 10 C1.01 10 0.02 10 -1 10 C-1 10.99 -1 11.98 -1 13 C-1.99 13 -2.98 13 -4 13 C-4.33 14.32 -4.66 15.64 -5 17 C-5.66 16.67 -6.32 16.34 -7 16 C-4.87594923 10.5443163 -2.72823857 5.18365329 0 0 Z " fill="#722BA9" transform="translate(395,350)"/>
<path d="M0 0 C0.66 0.66 1.32 1.32 2 2 C1.625 4.125 1.625 4.125 1 6 C0.01 6 -0.98 6 -2 6 C-1.67 6.99 -1.34 7.98 -1 9 C-1.99 10.485 -1.99 10.485 -3 12 C-3.68268138 13.32520503 -4.3507041 14.65812182 -5 16 C-5.33 16.66 -5.66 17.32 -6 18 C-6.66 18 -7.32 18 -8 18 C-8 20.31 -8 22.62 -8 25 C-8.66 24.67 -9.32 24.34 -10 24 C-10.40652968 18.57960425 -9.03993514 14.92984325 -7 10 C-6.34 10 -5.68 10 -5 10 C-4.67 7.69 -4.34 5.38 -4 3 C-2.68 3 -1.36 3 0 3 C0 2.01 0 1.02 0 0 Z " fill="#81548F" transform="translate(421,313)"/>
<path d="M0 0 C0.33 0.66 0.66 1.32 1 2 C6.61 2 12.22 2 18 2 C18 2.66 18 3.32 18 4 C9.09 4 0.18 4 -9 4 C-9 4.66 -9 5.32 -9 6 C-10.98 6 -12.96 6 -15 6 C-14.34 5.67 -13.68 5.34 -13 5 C-13 4.01 -13 3.02 -13 2 C-4.57142857 0.71428571 -4.57142857 0.71428571 0 2 C0 1.34 0 0.68 0 0 Z " fill="#9100F4" transform="translate(170,54)"/>
<path d="M0 0 C1.03159626 3.09478879 0.97482862 4.52631393 0.5625 7.6875 C0.46066406 8.49574219 0.35882813 9.30398438 0.25390625 10.13671875 C0.17011719 10.75160156 0.08632813 11.36648438 0 12 C-0.99 12 -1.98 12 -3 12 C-3 15.63 -3 19.26 -3 23 C-3.99 23.33 -4.98 23.66 -6 24 C-6 27.3 -6 30.6 -6 34 C-6.99 34 -7.98 34 -9 34 C-8.34 30.37 -7.68 26.74 -7 23 C-6.34 23 -5.68 23 -5 23 C-5.02320313 22.01257813 -5.04640625 21.02515625 -5.0703125 20.0078125 C-5.08835937 18.72648437 -5.10640625 17.44515625 -5.125 16.125 C-5.14820313 14.84882813 -5.17140625 13.57265625 -5.1953125 12.2578125 C-5 9 -5 9 -3 7 C-2.835 5.989375 -2.67 4.97875 -2.5 3.9375 C-2.335 2.968125 -2.17 1.99875 -2 1 C-1.34 0.67 -0.68 0.34 0 0 Z " fill="#8B715C" transform="translate(435,268)"/>
<path d="M0 0 C0.66 0.33 1.32 0.66 2 1 C2 4.73628544 0.81203733 6.74089301 -0.875 10.0625 C-1.40867187 11.12597656 -1.94234375 12.18945312 -2.4921875 13.28515625 C-4 16 -4 16 -6 18 C-6.33 18.99 -6.66 19.98 -7 21 C-7.66 21 -8.32 21 -9 21 C-9.33 21.66 -9.66 22.32 -10 23 C-10 21.02 -10 19.04 -10 17 C-9.01 17 -8.02 17 -7 17 C-7 14.69 -7 12.38 -7 10 C-6.01 9.67 -5.02 9.34 -4 9 C-4 7.35 -4 5.7 -4 4 C-3.01 3.67 -2.02 3.34 -1 3 C-0.67 2.01 -0.34 1.02 0 0 Z " fill="#79427C" transform="translate(71,132)"/>
<path d="M0 0 C1.98 0 3.96 0 6 0 C6 0.66 6 1.32 6 2 C6.99 2.33 7.98 2.66 9 3 C9 3.99 9 4.98 9 6 C9.99 6 10.98 6 12 6 C13.74627478 8.61941217 14.38722388 10.03824877 15 13 C11.125 11.25 11.125 11.25 10 9 C8.88625 8.5875 7.7725 8.175 6.625 7.75 C3.3737882 6.46153208 3.02449695 6.04030144 1.0625 2.8125 C0.711875 1.884375 0.36125 0.95625 0 0 Z " fill="#7E6049" transform="translate(353,75)"/>
<path d="M0 0 C0.66 0 1.32 0 2 0 C4.05217837 4.10435673 3.18489112 9.42675128 3.1875 13.9375 C3.19974609 15.04802734 3.21199219 16.15855469 3.22460938 17.30273438 C3.22654297 18.36685547 3.22847656 19.43097656 3.23046875 20.52734375 C3.23457764 21.50437256 3.23868652 22.48140137 3.24291992 23.48803711 C3 26 3 26 1 29 C0.67 19.43 0.34 9.86 0 0 Z " fill="#F2A15D" transform="translate(436,216)"/>
<path d="M0 0 C0.66 0.99 1.32 1.98 2 3 C1.0072701 6.51967873 -0.56382119 9.28272363 -3 12 C-4.31647119 12.69937532 -5.65022151 13.36729133 -7 14 C-8.70921589 15.5412312 -8.70921589 15.5412312 -10 17 C-10 15.35 -10 13.7 -10 12 C-9.34 11.67 -8.68 11.34 -8 11 C-7.67 10.01 -7.34 9.02 -7 8 C-6.01 8 -5.02 8 -4 8 C-3.67 7.01 -3.34 6.02 -3 5 C-2.01 5 -1.02 5 0 5 C0 3.35 0 1.7 0 0 Z " fill="#715960" transform="translate(90,105)"/>
<path d="M0 0 C0.66 0.33 1.32 0.66 2 1 C2 2.32 2 3.64 2 5 C0.68 5 -0.64 5 -2 5 C-2 5.99 -2 6.98 -2 8 C-2.99 8 -3.98 8 -5 8 C-5 8.99 -5 9.98 -5 11 C-5.99 11 -6.98 11 -8 11 C-8 12.32 -8 13.64 -8 15 C-9.32 15.33 -10.64 15.66 -12 16 C-12.33 15.34 -12.66 14.68 -13 14 C-12.34 13.360625 -11.68 12.72125 -11 12.0625 C-7.14346256 8.2170765 -3.59166578 4.09075581 0 0 Z " fill="#A1800A" transform="translate(386,368)"/>
<path d="M0 0 C0 0.33 0 0.66 0 1 C-1.98 1 -3.96 1 -6 1 C-5.67 1.99 -5.34 2.98 -5 4 C-6.79008467 4.22151549 -8.58218162 4.42682213 -10.375 4.625 C-11.37273437 4.74101563 -12.37046875 4.85703125 -13.3984375 4.9765625 C-14.25695312 4.98429687 -15.11546875 4.99203125 -16 5 C-16.66 4.34 -17.32 3.68 -18 3 C-18 2.34 -18 1.68 -18 1 C-11.95170514 0.10395632 -6.1105424 -0.11269443 0 0 Z " fill="#A200F2" transform="translate(243,40)"/>
<path d="M0 0 C0.99 0.33 1.98 0.66 3 1 C2.34 1 1.68 1 1 1 C1.09539063 1.58007812 1.19078125 2.16015625 1.2890625 2.7578125 C2.0047983 7.80125313 2.01050629 11.19712387 0 16 C-0.92620947 19.29318923 -1.46277156 22.62313552 -2 26 C-2.33 26 -2.66 26 -3 26 C-3 21.71 -3 17.42 -3 13 C-2.01 12.67 -1.02 12.34 0 12 C0 8.04 0 4.08 0 0 Z " fill="#886274" transform="translate(48,184)"/>
<path d="M0 0 C0.66 0.99 1.32 1.98 2 3 C1.01 3.495 1.01 3.495 0 4 C-0.2475 4.763125 -0.495 5.52625 -0.75 6.3125 C-2.40564416 9.87213495 -4.67195779 11.04658392 -8 13 C-8.99 12.34 -9.98 11.68 -11 11 C-10.34 11 -9.68 11 -9 11 C-8.9175 10.38125 -8.835 9.7625 -8.75 9.125 C-8 7 -8 7 -6.0625 5.8125 C-5.381875 5.544375 -4.70125 5.27625 -4 5 C-3.34 4.67 -2.68 4.34 -2 4 C-2 3.34 -2 2.68 -2 2 C-1.34 2 -0.68 2 0 2 C0 1.34 0 0.68 0 0 Z " fill="#8A5D7A" transform="translate(102,93)"/>
<path d="M0 0 C0.99 0 1.98 0 3 0 C1.54905987 3.38552696 -0.1216504 5.68132949 -3 8 C-6.25 8.75 -6.25 8.75 -9 9 C-9 8.01 -9 7.02 -9 6 C-8.34 6 -7.68 6 -7 6 C-7 5.01 -7 4.02 -7 3 C-3.535 2.505 -3.535 2.505 0 2 C0 1.34 0 0.68 0 0 Z " fill="#685A98" transform="translate(125,75)"/>
<path d="M0 0 C1.10859375 0.00322266 2.2171875 0.00644531 3.359375 0.00976562 C4.50148437 0.01814453 5.64359375 0.02652344 6.8203125 0.03515625 C8.56828125 0.04192383 8.56828125 0.04192383 10.3515625 0.04882812 C13.21619895 0.06056844 16.08072883 0.07699055 18.9453125 0.09765625 C15.90410558 1.87270331 13.89856596 2.31071392 10.3984375 2.07421875 C9.13193359 1.996875 9.13193359 1.996875 7.83984375 1.91796875 C6.96714844 1.85351562 6.09445313 1.7890625 5.1953125 1.72265625 C4.30714844 1.6659375 3.41898438 1.60921875 2.50390625 1.55078125 C0.31684918 1.40968079 -1.8689944 1.25831295 -4.0546875 1.09765625 C-4.0546875 1.75765625 -4.0546875 2.41765625 -4.0546875 3.09765625 C-6.6946875 3.09765625 -9.3346875 3.09765625 -12.0546875 3.09765625 C-12.0546875 2.43765625 -12.0546875 1.77765625 -12.0546875 1.09765625 C-7.9794241 0.3298915 -4.14463303 -0.02136409 0 0 Z " fill="#9A3889" transform="translate(249.0546875,39.90234375)"/>
<path d="M0 0 C6.27 0 12.54 0 19 0 C19 0.33 19 0.66 19 1 C17.02 1.33 15.04 1.66 13 2 C13 2.99 13 3.98 13 5 C11.68 4.67 10.36 4.34 9 4 C9.33 3.34 9.66 2.68 10 2 C8.72125 2.185625 7.4425 2.37125 6.125 2.5625 C2.25 3.125 2.25 3.125 0 2 C0 1.34 0 0.68 0 0 Z " fill="#943792" transform="translate(214,40)"/>
<path d="M0 0 C2.31 0 4.62 0 7 0 C7 0.66 7 1.32 7 2 C7.99 1.67 8.98 1.34 10 1 C10.433125 1.45375 10.86625 1.9075 11.3125 2.375 C13.10798342 4.20024334 13.10798342 4.20024334 16 6 C12.86650268 7.04449911 12.01031744 6.93423645 9 6 C9 5.01 9 4.02 9 3 C6.03 3 3.06 3 0 3 C0 2.01 0 1.02 0 0 Z " fill="#7E6A40" transform="translate(173,421)"/>
<path d="M0 0 C0.99 0.33 1.98 0.66 3 1 C3 1.66 3 2.32 3 3 C3.99 3 4.98 3 6 3 C6 4.98 6 6.96 6 9 C2.60620325 7.86873442 1.21867135 6.77333918 -1 4 C-0.75 1.75 -0.75 1.75 0 0 Z " fill="#775E81" transform="translate(401,123)"/>
<path d="M0 0 C1.2684375 0.2475 1.2684375 0.2475 2.5625 0.5 C6.0086214 1.08546428 6.0086214 1.08546428 9.5625 1 C12.57064141 1 15.09142608 1.29489117 18 2 C18 2.33 18 2.66 18 3 C12.06 3 6.12 3 0 3 C0 2.01 0 1.02 0 0 Z " fill="#A0B41A" transform="translate(209,431)"/>
<path d="M0 0 C0.66 0.33 1.32 0.66 2 1 C1.34 2.98 0.68 4.96 0 7 C-0.66 7 -1.32 7 -2 7 C-2 9.31 -2 11.62 -2 14 C-2.66 13.67 -3.32 13.34 -4 13 C-4.17942163 9.05272412 -4.09350689 6.4019487 -2 3 C-1.34 3 -0.68 3 0 3 C0 2.01 0 1.02 0 0 Z " fill="#7A6F63" transform="translate(415,324)"/>
<path d="M0 0 C2.5 1 2.5 1 5 3 C5.46837899 5.79374292 5.23424505 8.14221036 5 11 C3 9 1 7 -1 5 C-0.625 2.375 -0.625 2.375 0 0 Z " fill="#6E5A6C" transform="translate(424,168)"/>
<path d="M0 0 C1.921875 0.7109375 1.921875 0.7109375 4 2 C4.828125 4.1640625 4.828125 4.1640625 5.25 6.625 C5.39953125 7.44226563 5.5490625 8.25953125 5.703125 9.1015625 C5.80109375 9.72804687 5.8990625 10.35453125 6 11 C4.0625 10.6875 4.0625 10.6875 2 10 C1 7 1 7 2 4 C1.34 4 0.68 4 0 4 C0 2.68 0 1.36 0 0 Z " fill="#817F3F" transform="translate(419,154)"/>
<path d="M0 0 C0.99 0 1.98 0 3 0 C3.103125 0.928125 3.20625 1.85625 3.3125 2.8125 C4.0070192 6.03254358 4.47740939 7.02579865 7 9 C6.01 10.485 6.01 10.485 5 12 C2.2289312 9.65408148 1.47940716 7.85223799 0.8125 4.3125 C0.65394531 3.50425781 0.49539063 2.69601563 0.33203125 1.86328125 C0.22246094 1.24839844 0.11289062 0.63351563 0 0 Z " fill="#7D584B" transform="translate(413,142)"/>
<path d="M0 0 C2.96676187 1.05231297 3.89604626 1.81780739 5.484375 4.6015625 C5.90203125 5.59929687 6.3196875 6.59703125 6.75 7.625 C7.17796875 8.62789062 7.6059375 9.63078125 8.046875 10.6640625 C8.36140625 11.43492187 8.6759375 12.20578125 9 13 C8.01 13 7.02 13 6 13 C5.67 12.01 5.34 11.02 5 10 C4.34 9.67 3.68 9.34 3 9 C2.2833793 6.68152126 1.61757973 4.34680297 1 2 C0.67 1.34 0.34 0.68 0 0 Z " fill="#6200F4" transform="translate(154,136)"/>
<path d="M0 0 C0.66 0 1.32 0 2 0 C1.6875 1.9375 1.6875 1.9375 1 4 C0.01 4.33 -0.98 4.66 -2 5 C-3.20882096 7.00016466 -3.20882096 7.00016466 -4 9 C-4.66 9 -5.32 9 -6 9 C-6.33 9.66 -6.66 10.32 -7 11 C-7.33 9.35 -7.66 7.7 -8 6 C-6.35 6 -4.7 6 -3 6 C-3 5.01 -3 4.02 -3 3 C-2.01 3 -1.02 3 0 3 C0 2.01 0 1.02 0 0 Z " fill="#763B90" transform="translate(112,85)"/>
<path d="M0 0 C1.98 0 3.96 0 6 0 C6 0.66 6 1.32 6 2 C5.34 2 4.68 2 4 2 C4.61875 2.61875 5.2375 3.2375 5.875 3.875 C7.25 5.25 8.625 6.625 10 8 C7.25 7.9375 7.25 7.9375 4 7 C2.23488701 4.77488786 1.22702224 2.59562397 0 0 Z " fill="#93428F" transform="translate(353,75)"/>
<path d="M0 0 C0.33 0.99 0.66 1.98 1 3 C0.01 3.495 0.01 3.495 -1 4 C-1.33 4.99 -1.66 5.98 -2 7 C-4.31 7 -6.62 7 -9 7 C-6.03716687 4.61327331 -3.05729491 2.2646629 0 0 Z " fill="#A28512" transform="translate(361,392)"/>
<path d="M0 0 C1.32 0 2.64 0 4 0 C4 1.98 4 3.96 4 6 C2.68 6.33 1.36 6.66 0 7 C0 4.69 0 2.38 0 0 Z " fill="#6800FC" transform="translate(402,325)"/>
<path d="M0 0 C0.66 0.33 1.32 0.66 2 1 C2 4.3 2 7.6 2 11 C1.01 11 0.02 11 -1 11 C-1.14285714 3.57142857 -1.14285714 3.57142857 0 0 Z " fill="#D1AA1C" transform="translate(437,247)"/>
<path d="M0 0 C2 1 2 1 2.75 3.1875 C3.05586942 6.62853097 2.36166795 8.8466637 1 12 C0.01 12.495 0.01 12.495 -1 13 C-0.67 8.71 -0.34 4.42 0 0 Z " fill="#775D62" transform="translate(433,195)"/>
<path d="M0 0 C0.99 0 1.98 0 3 0 C3.33 4.62 3.66 9.24 4 14 C3.34 14 2.68 14 2 14 C1.34 9.38 0.68 4.76 0 0 Z " fill="#A27D3A" transform="translate(429,181)"/>
<path d="M0 0 C0.66 0 1.32 0 2 0 C3.26237731 2.52475462 3.09856404 4.31200466 3.0625 7.125 C3.05347656 8.03507813 3.04445313 8.94515625 3.03515625 9.8828125 C3.02355469 10.58148438 3.01195312 11.28015625 3 12 C0.50494038 9.50494038 0.64051624 8.32671112 0.375 4.875 C0.30023438 3.96492187 0.22546875 3.05484375 0.1484375 2.1171875 C0.09945313 1.41851562 0.05046875 0.71984375 0 0 Z " fill="#E5B21E" transform="translate(436,216)"/>
<path d="M0 0 C-0.33 0.99 -0.66 1.98 -1 3 C-6.625 3.25 -6.625 3.25 -10 1 C-3.71428571 -1.42857143 -3.71428571 -1.42857143 0 0 Z " fill="#A000E6" transform="translate(191,48)"/>
<path d="M0 0 C-0.33 0.66 -0.66 1.32 -1 2 C-4.63 2 -8.26 2 -12 2 C-12 1.34 -12 0.68 -12 0 C-7.6835078 -0.76173392 -4.25566547 -1.16063604 0 0 Z " fill="#96A61F" transform="translate(273,432)"/>
<path d="M0 0 C1.31223496 3.93670488 0.24296256 6.12488144 -1 10 C-1.66 10 -2.32 10 -3 10 C-3.33 10.66 -3.66 11.32 -4 12 C-4 10.02 -4 8.04 -4 6 C-3.01 6 -2.02 6 -1 6 C-1.020625 5.195625 -1.04125 4.39125 -1.0625 3.5625 C-1 1 -1 1 0 0 Z " fill="#77504B" transform="translate(65,143)"/>
<path d="M0 0 C2.64465038 3.1254959 3.84414715 6.08788267 5 10 C4.34 10.66 3.68 11.32 3 12 C3 10.35 3 8.7 3 7 C2.01 7 1.02 7 0 7 C0 4.69 0 2.38 0 0 Z " fill="#928C00" transform="translate(61,318)"/>
<path d="M0 0 C0.66 0 1.32 0 2 0 C1.34 4.62 0.68 9.24 0 14 C-0.33 14 -0.66 14 -1 14 C-1.02685938 11.85423363 -1.04633088 9.70837355 -1.0625 7.5625 C-1.07410156 6.36753906 -1.08570313 5.17257813 -1.09765625 3.94140625 C-1 1 -1 1 0 0 Z " fill="#9EAE11" transform="translate(46,196)"/>
<path d="M0 0 C-0.99766109 2.49415272 -1.68616685 3.78740335 -3.9375 5.3125 C-6 6 -6 6 -9 5 C-7.87926138 4.16094435 -6.75325453 3.32892169 -5.625 2.5 C-4.99851563 2.0359375 -4.37203125 1.571875 -3.7265625 1.09375 C-2 0 -2 0 0 0 Z " fill="#8A00E6" transform="translate(137,70)"/>
<path d="M0 0 C2.31 0 4.62 0 7 0 C6.67 1.32 6.34 2.64 6 4 C3.69 4 1.38 4 -1 4 C-0.67 2.68 -0.34 1.36 0 0 Z " fill="#A85C87" transform="translate(164,52)"/>
<path d="M0 0 C1.98 0 3.96 0 6 0 C5.01 1.98 4.02 3.96 3 6 C2.01 5.34 1.02 4.68 0 4 C0 2.68 0 1.36 0 0 Z " fill="#8300F3" transform="translate(163,75)"/>
<path d="M0 0 C2.97 0.33 5.94 0.66 9 1 C8.67 1.66 8.34 2.32 8 3 C5.69 3 3.38 3 1 3 C0.67 2.01 0.34 1.02 0 0 Z " fill="#DC8B19" transform="translate(192,428)"/>
<path d="M0 0 C1.9375 0.8125 1.9375 0.8125 4 2 C4.33 2.99 4.66 3.98 5 5 C5.66 5 6.32 5 7 5 C6.67 6.32 6.34 7.64 6 9 C6 8.01 6 7.02 6 6 C5.01 6 4.02 6 3 6 C3 5.01 3 4.02 3 3 C2.01 3 1.02 3 0 3 C0 2.01 0 1.02 0 0 Z " fill="#E28C0C" transform="translate(112,386)"/>
<path d="M0 0 C0.99 0 1.98 0 3 0 C3 2.31 3 4.62 3 7 C2.01 6.67 1.02 6.34 0 6 C-0.75 4.0625 -0.75 4.0625 -1 2 C-0.67 1.34 -0.34 0.68 0 0 Z " fill="#80289E" transform="translate(407,334)"/>
<path d="M0 0 C1.95216435 3.90432869 2.50639991 6.72213252 3 11 C2.01 11 1.02 11 0 11 C0 7.37 0 3.74 0 0 Z " fill="#A1920A" transform="translate(48,279)"/>
<path d="M0 0 C1.65 0 3.3 0 5 0 C4.67 1.32 4.34 2.64 4 4 C2.02 4 0.04 4 -2 4 C-1.34 3.67 -0.68 3.34 0 3 C0 2.01 0 1.02 0 0 Z " fill="#6E2E9A" transform="translate(157,56)"/>
<path d="M0 0 C2.97 1.65 5.94 3.3 9 5 C9 5.33 9 5.66 9 6 C7.02 6 5.04 6 3 6 C3 5.01 3 4.02 3 3 C2.01 3 1.02 3 0 3 C0 2.01 0 1.02 0 0 Z " fill="#CC8E1A" transform="translate(125,396)"/>
<path d="M0 0 C0.66 0 1.32 0 2 0 C1.67 2.64 1.34 5.28 1 8 C0.01 8.33 -0.98 8.66 -2 9 C-1.34 6.03 -0.68 3.06 0 0 Z " fill="#6900F1" transform="translate(92,106)"/>
<path d="M0 0 C0.99 0 1.98 0 3 0 C2.25 1.9375 2.25 1.9375 1 4 C-1 4.875 -1 4.875 -3 5 C-3.66 4.34 -4.32 3.68 -5 3 C-3.35 2.67 -1.7 2.34 0 2 C0 1.34 0 0.68 0 0 Z " fill="#672884" transform="translate(125,75)"/>
<path d="M0 0 C1.98 0 3.96 0 6 0 C6.66 1.32 7.32 2.64 8 4 C5.36 3.34 2.72 2.68 0 2 C0 1.34 0 0.68 0 0 Z " fill="#B8C415" transform="translate(304,49)"/>
<path d="M0 0 C0 0.66 0 1.32 0 2 C-6.625 3.125 -6.625 3.125 -10 2 C-6.38026598 0.68373308 -3.90432869 0 0 0 Z " fill="#B5A00F" transform="translate(288,428)"/>
<path d="M0 0 C2.375 0.625 2.375 0.625 5 2 C6.3125 5.125 6.3125 5.125 7 8 C3.28631113 6.76210371 2.22645819 5.14775123 0 2 C0 1.34 0 0.68 0 0 Z " fill="#5E00F9" transform="translate(163,150)"/>
<path d="M0 0 C1.65 0 3.3 0 5 0 C3.86695008 3.39914975 2.87481525 4.05254451 0 6 C-0.66 5.34 -1.32 4.68 -2 4 C-1.34 4 -0.68 4 0 4 C0 2.68 0 1.36 0 0 Z " fill="#7A9807" transform="translate(93,100)"/>
<path d="M0 0 C2 1 2 1 2 1 Z " fill="#000000" transform="translate(58,317)"/>
<path d="" fill="#FFFF00" transform="translate(0,0)"/>
<path d="" fill="#FFFF00" transform="translate(0,0)"/>
<path d="" fill="#FFFF00" transform="translate(0,0)"/>
<path d="" fill="#000000" transform="translate(0,0)"/>
<path d="" fill="#000000" transform="translate(0,0)"/>
<path d="" fill="#FFFF00" transform="translate(0,0)"/>
<path d="" fill="#FFFF00" transform="translate(0,0)"/>
<path d="" fill="#FFFF00" transform="translate(0,0)"/>
<path d="" fill="#000000" transform="translate(0,0)"/>
<path d="" fill="#000000" transform="translate(0,0)"/>
<path d="" fill="#000000" transform="translate(0,0)"/>
<path d="" fill="#000000" transform="translate(0,0)"/>
<path d="" fill="#000000" transform="translate(0,0)"/>
<path d="" fill="#000000" transform="translate(0,0)"/>
</svg>
